<svg width="1440" height="753" viewBox="0 0 1440 753" fill="none" xmlns="http://www.w3.org/2000/svg">
<path d="M940.066 109.467H1099.48C1099.48 109.467 1086.5 91.6222 1075.96 94.0547C1069.75 95.4367 1064.26 99.0433 1060.54 104.193C1060.54 104.193 1049.18 69.3175 1016.73 73.3729C984.272 77.4283 977.788 100.138 977.788 100.138C977.788 100.138 971.299 87.2376 961.563 91.2562C951.826 95.2748 940.066 109.467 940.066 109.467Z" fill="#EDDED8"/>
<path d="M429.417 318.422H270C270 318.422 282.979 300.577 293.527 303.01C299.733 304.392 305.219 307.999 308.947 313.148C308.947 313.148 320.304 278.273 352.758 282.328C385.211 286.384 391.695 309.093 391.695 309.093C391.695 309.093 398.184 296.193 407.92 300.211C417.657 304.23 429.417 318.422 429.417 318.422Z" fill="#EDDED8"/>
<path d="M100 123.422H259.417C259.417 123.422 246.438 105.577 235.89 108.01C229.684 109.392 224.198 112.999 220.47 118.148C220.47 118.148 209.113 83.2727 176.659 87.3281C144.206 91.3835 137.722 114.093 137.722 114.093C137.722 114.093 131.233 101.193 121.497 105.211C111.76 109.23 100 123.422 100 123.422Z" fill="#EDDED8"/>
<path d="M586.749 236.805L737.243 240.051C737.243 240.051 737.243 214.636 722.641 215.719C718.614 215.856 714.694 217.051 711.276 219.184C707.858 221.316 705.063 224.311 703.17 227.867C703.17 227.867 710.741 184.627 673.692 186.519C636.644 188.411 626.526 228.425 626.526 228.425C626.526 228.425 617.983 212.473 606.085 214.907C594.187 217.342 586.749 236.805 586.749 236.805Z" fill="#EDDED8"/>
<path d="M674.967 126.478C675.262 124.567 676.104 122.782 677.392 121.339C678.735 119.829 680.608 118.894 682.622 118.73C683.615 118.663 684.612 118.781 685.561 119.078C686.489 119.398 687.341 119.908 688.06 120.575C689.451 121.915 690.423 123.629 690.859 125.51L690.007 125.477C690.33 123.493 691.242 121.651 692.626 120.192C694.067 118.67 696.032 117.753 698.124 117.624C699.172 117.599 700.213 117.813 701.166 118.249C702.12 118.685 702.962 119.332 703.629 120.142C704.908 121.61 705.817 123.363 706.279 125.254L706.126 125.311C705.235 123.715 704.09 122.276 702.734 121.05C702.11 120.467 701.379 120.012 700.58 119.71C699.834 119.398 699.022 119.276 698.217 119.355C696.533 119.464 694.936 120.141 693.688 121.277C692.405 122.487 691.433 123.989 690.853 125.655L690.177 127.542L690.001 125.621C689.947 124.733 689.717 123.865 689.325 123.067C688.932 122.269 688.385 121.557 687.715 120.972C687.011 120.47 686.204 120.128 685.353 119.973C684.501 119.818 683.626 119.852 682.789 120.074C681.959 120.216 681.151 120.463 680.383 120.808C679.624 121.19 678.916 121.666 678.275 122.224C676.972 123.451 675.902 124.905 675.12 126.515L674.967 126.478Z" fill="#494D52"/>
<path d="M855.972 43.1879C856.267 41.2765 857.11 39.4917 858.399 38.0499C859.741 36.5391 861.615 35.6045 863.629 35.4412C864.622 35.3726 865.619 35.4902 866.568 35.7878C867.496 36.1074 868.347 36.6173 869.067 37.2849C870.454 38.6256 871.423 40.3397 871.856 42.2195L871.004 42.1847C871.328 40.2007 872.241 38.36 873.625 36.9014C875.064 35.3784 877.029 34.4602 879.121 34.3334C880.169 34.308 881.21 34.5215 882.164 34.9577C883.118 35.3939 883.96 36.0414 884.626 36.8511C885.906 38.3188 886.815 40.0722 887.276 41.9639L887.123 42.02C886.233 40.4244 885.087 38.9851 883.731 37.7594C883.107 37.1769 882.375 36.7217 881.577 36.4192C880.832 36.1068 880.02 35.985 879.216 36.0648C877.531 36.1741 875.933 36.8521 874.685 37.9879C873.402 39.1984 872.43 40.6996 871.851 42.3648L871.176 44.2511L870.998 42.3318C870.944 41.4443 870.715 40.5763 870.322 39.7784C869.93 38.9805 869.383 38.2685 868.712 37.6838C868.008 37.1807 867.201 36.8393 866.35 36.684C865.498 36.5286 864.623 36.5632 863.786 36.7852C862.956 36.9261 862.147 37.1721 861.378 37.5173C860.619 37.8995 859.911 38.3751 859.271 38.933C857.968 40.1619 856.899 41.6166 856.115 43.2266L855.972 43.1879Z" fill="#494D52"/>
<path d="M729.984 135.197C729.772 133.828 729.166 132.55 728.241 131.518C727.278 130.433 725.934 129.763 724.488 129.647C723.777 129.6 723.063 129.684 722.383 129.897C721.718 130.125 721.108 130.491 720.593 130.97C719.596 131.929 718.899 133.158 718.588 134.506L719.198 134.483C718.966 133.061 718.312 131.741 717.321 130.695C716.289 129.605 714.881 128.947 713.383 128.855C712.631 128.837 711.885 128.991 711.201 129.304C710.518 129.617 709.914 130.081 709.436 130.662C708.519 131.714 707.868 132.971 707.538 134.328L707.647 134.367C708.285 133.222 709.106 132.19 710.078 131.31C710.526 130.89 711.053 130.561 711.627 130.342C712.162 130.118 712.744 130.031 713.321 130.088C714.527 130.167 715.672 130.652 716.567 131.465C717.486 132.333 718.182 133.409 718.597 134.603L719.082 135.958L719.208 134.583C719.247 133.948 719.412 133.326 719.693 132.755C719.975 132.183 720.367 131.673 720.846 131.254C721.351 130.893 721.93 130.648 722.54 130.537C723.15 130.426 723.778 130.45 724.378 130.609C724.972 130.711 725.552 130.887 726.102 131.134C726.646 131.409 727.153 131.75 727.613 132.149C728.546 133.03 729.312 134.072 729.874 135.226L729.984 135.197Z" fill="#494D52"/>
<path d="M862.399 54.2657C862.106 53.3507 861.485 52.5762 860.656 52.0908C859.524 51.3992 858.229 51.0184 856.903 50.9869C856.198 50.9576 855.492 51.007 854.798 51.1341C854.173 51.2542 853.569 51.4677 853.008 51.7674C852.121 52.2162 851.414 52.9531 851.003 53.857L851.613 53.8435C851.289 52.889 850.619 52.0903 849.736 51.6047C848.537 50.9135 847.181 50.5396 845.798 50.5182C844.404 50.4596 843.026 50.8322 841.852 51.5853C841.021 52.1064 840.361 52.8591 839.953 53.7505L840.062 53.7757C840.769 53.0464 841.59 52.4362 842.493 51.9688C842.98 51.7076 843.502 51.5166 844.042 51.4013C844.596 51.2681 845.167 51.2178 845.736 51.2522C846.865 51.2776 847.974 51.5556 848.982 52.0656C849.811 52.4938 850.511 53.1331 851.012 53.919L851.497 54.7169L851.623 53.9054C851.713 53.4679 851.909 53.0593 852.195 52.716C852.481 52.3728 852.847 52.1054 853.261 51.9378C854.382 51.494 855.602 51.3602 856.793 51.5505C857.375 51.6093 857.951 51.7136 858.517 51.8623C859.038 52.015 859.544 52.2154 860.028 52.4607C860.888 52.9217 861.654 53.5384 862.289 54.2792L862.399 54.2657Z" fill="#494D52"/>
<path d="M1008.51 247.267C1008.8 245.356 1009.65 243.571 1010.94 242.129C1012.28 240.618 1014.15 239.683 1016.17 239.52C1017.16 239.454 1018.15 239.571 1019.1 239.867C1020.03 240.186 1020.88 240.696 1021.6 241.364C1022.99 242.704 1023.96 244.419 1024.4 246.301L1023.55 246.268C1023.87 244.283 1024.78 242.441 1026.17 240.982C1027.61 239.46 1029.57 238.542 1031.66 238.414C1032.71 238.39 1033.75 238.603 1034.71 239.039C1035.66 239.476 1036.5 240.123 1037.17 240.932C1038.45 242.401 1039.36 244.155 1039.82 246.047L1039.67 246.103C1038.78 244.507 1037.63 243.068 1036.28 241.842C1035.65 241.259 1034.92 240.804 1034.12 240.502C1033.37 240.19 1032.56 240.068 1031.76 240.146C1030.07 240.255 1028.48 240.933 1027.23 242.069C1025.95 243.279 1024.97 244.781 1024.39 246.446L1023.72 248.334L1023.54 246.413C1023.49 245.526 1023.26 244.658 1022.86 243.86C1022.47 243.062 1021.93 242.35 1021.26 241.765C1020.55 241.262 1019.75 240.92 1018.89 240.765C1018.04 240.61 1017.17 240.644 1016.33 240.866C1015.5 241.008 1014.69 241.254 1013.92 241.598C1013.16 241.982 1012.46 242.457 1011.81 243.014C1010.51 244.242 1009.44 245.697 1008.66 247.308L1008.51 247.267Z" fill="#494D52"/>
<path d="M1014.94 258.352C1014.65 257.437 1014.03 256.662 1013.2 256.176C1012.07 255.485 1010.78 255.104 1009.45 255.072C1008.74 255.042 1008.04 255.092 1007.34 255.219C1006.72 255.34 1006.12 255.553 1005.55 255.852C1004.67 256.302 1003.96 257.039 1003.55 257.942L1004.16 257.928C1003.83 256.974 1003.16 256.177 1002.28 255.692C1001.08 254.999 999.726 254.624 998.342 254.603C996.948 254.545 995.571 254.918 994.397 255.672C993.566 256.192 992.906 256.945 992.499 257.837L992.608 257.861C993.315 257.132 994.136 256.523 995.039 256.056C995.526 255.794 996.047 255.603 996.588 255.488C997.142 255.353 997.713 255.302 998.281 255.337C999.41 255.363 1000.52 255.641 1001.53 256.15C1002.35 256.579 1003.06 257.218 1003.56 258.004L1004.04 258.804L1004.17 257.99C1004.26 257.553 1004.45 257.145 1004.74 256.801C1005.03 256.458 1005.39 256.191 1005.81 256.023C1006.93 255.578 1008.15 255.444 1009.34 255.635C1009.92 255.693 1010.5 255.796 1011.06 255.945C1011.58 256.098 1012.09 256.299 1012.57 256.544C1013.43 257.005 1014.2 257.621 1014.83 258.362L1014.94 258.352Z" fill="#494D52"/>
</svg>
